<?xml version="1.0" encoding="UTF-8" standalone="no"?>
<!-- Generator: Gravit.io -->
<svg xmlns="http://www.w3.org/2000/svg" xmlns:xlink="http://www.w3.org/1999/xlink" style="isolation:isolate" viewBox="130.446 145.274 118.8 73.7" width="118.8pt" height="73.7pt"><g><g><path d=" M 144.426 218.974 L 144.426 218.974 Q 142.206 218.974 141.246 217.984 L 141.246 217.984 L 141.246 217.984 Q 140.286 216.994 140.286 214.234 L 140.286 214.234 L 140.286 214.234 Q 140.286 212.374 140.646 209.734 L 140.646 209.734 L 140.646 209.734 Q 141.006 207.094 141.906 201.754 L 141.906 201.754 L 141.906 201.754 Q 142.026 201.034 142.866 195.904 L 142.866 195.904 L 142.866 195.904 Q 143.706 190.774 144.366 185.134 L 144.366 185.134 L 144.366 185.134 Q 144.966 180.334 144.966 177.934 L 144.966 177.934 L 144.966 177.934 Q 144.966 175.234 142.986 175.234 L 142.986 175.234 L 142.986 175.234 Q 141.486 175.234 139.236 176.824 L 139.236 176.824 L 139.236 176.824 Q 136.986 178.414 134.406 181.894 L 134.406 181.894 L 134.406 181.894 Q 133.566 183.034 132.546 183.034 L 132.546 183.034 L 132.546 183.034 Q 131.706 183.034 131.076 182.224 L 131.076 182.224 L 131.076 182.224 Q 130.446 181.414 130.446 180.394 L 130.446 180.394 L 130.446 180.394 Q 130.446 179.374 130.806 178.444 L 130.806 178.444 L 130.806 178.444 Q 131.166 177.514 132.126 176.194 L 132.126 176.194 L 132.126 176.194 Q 135.066 172.174 138.666 169.984 L 138.666 169.984 L 138.666 169.984 Q 142.266 167.794 146.226 167.794 L 146.226 167.794 L 146.226 167.794 Q 149.526 167.794 151.176 169.834 L 151.176 169.834 L 151.176 169.834 Q 152.826 171.874 152.826 175.774 L 152.826 175.774 L 152.826 175.774 Q 152.826 179.254 151.866 185.854 L 151.866 185.854 L 151.866 185.854 Q 154.866 176.974 159.486 172.384 L 159.486 172.384 L 159.486 172.384 Q 164.106 167.794 170.346 167.794 L 170.346 167.794 L 170.346 167.794 Q 175.266 167.794 177.756 170.584 L 177.756 170.584 L 177.756 170.584 Q 180.246 173.374 180.246 178.054 L 180.246 178.054 L 180.246 178.054 Q 180.246 180.694 179.466 184.474 L 179.466 184.474 L 175.806 201.634 L 175.806 201.634 Q 175.206 204.634 175.206 206.794 L 175.206 206.794 L 175.206 206.794 Q 175.206 209.314 176.376 210.574 L 176.376 210.574 L 176.376 210.574 Q 177.546 211.834 179.646 211.834 L 179.646 211.834 L 179.646 211.834 Q 181.626 211.834 183.516 210.514 L 183.516 210.514 L 183.516 210.514 Q 185.406 209.194 187.986 206.134 L 187.986 206.134 L 187.986 206.134 Q 188.706 205.294 189.606 205.294 L 189.606 205.294 L 189.606 205.294 Q 190.386 205.294 190.836 206.014 L 190.836 206.014 L 190.836 206.014 Q 191.286 206.734 191.286 207.994 L 191.286 207.994 L 191.286 207.994 Q 191.286 210.334 190.146 211.714 L 190.146 211.714 L 190.146 211.714 Q 187.026 215.494 183.966 217.234 L 183.966 217.234 L 183.966 217.234 Q 180.906 218.974 177.546 218.974 L 177.546 218.974 L 177.546 218.974 Q 172.446 218.974 169.566 215.944 L 169.566 215.944 L 169.566 215.944 Q 166.686 212.914 166.686 207.814 L 166.686 207.814 L 166.686 207.814 Q 166.686 205.834 167.016 203.494 L 167.016 203.494 L 167.016 203.494 Q 167.346 201.154 168.126 197.554 L 168.126 197.554 L 170.526 186.574 L 170.526 186.574 Q 170.646 186.034 170.946 184.654 L 170.946 184.654 L 170.946 184.654 Q 171.246 183.274 171.426 182.044 L 171.426 182.044 L 171.426 182.044 Q 171.606 180.814 171.606 179.614 L 171.606 179.614 L 171.606 179.614 Q 171.606 177.694 170.526 176.554 L 170.526 176.554 L 170.526 176.554 Q 169.446 175.414 167.466 175.414 L 167.466 175.414 L 167.466 175.414 Q 163.866 175.414 160.266 179.254 L 160.266 179.254 L 160.266 179.254 Q 156.666 183.094 153.606 191.644 L 153.606 191.644 L 153.606 191.644 Q 150.546 200.194 148.806 213.514 L 148.806 213.514 L 148.806 213.514 Q 148.386 216.574 147.576 217.774 L 147.576 217.774 L 147.576 217.774 Q 146.766 218.974 144.426 218.974 L 144.426 218.974 Z " fill="rgb(0,0,0)"/><path d=" M 217.026 200.254 L 217.026 200.254 Q 217.806 200.254 218.226 201.034 L 218.226 201.034 L 218.226 201.034 Q 218.646 201.814 218.646 203.014 L 218.646 203.014 L 218.646 203.014 Q 218.646 205.894 216.906 206.434 L 216.906 206.434 L 216.906 206.434 Q 213.306 207.694 208.986 207.874 L 208.986 207.874 L 208.986 207.874 Q 207.846 212.914 204.486 215.944 L 204.486 215.944 L 204.486 215.944 Q 201.126 218.974 196.866 218.974 L 196.866 218.974 L 196.866 218.974 Q 193.266 218.974 190.716 217.234 L 190.716 217.234 L 190.716 217.234 Q 188.166 215.494 186.846 212.614 L 186.846 212.614 L 186.846 212.614 Q 185.526 209.734 185.526 206.374 L 185.526 206.374 L 185.526 206.374 Q 185.526 201.814 187.266 198.244 L 187.266 198.244 L 187.266 198.244 Q 189.006 194.674 192.066 192.664 L 192.066 192.664 L 192.066 192.664 Q 195.126 190.654 198.846 190.654 L 198.846 190.654 L 198.846 190.654 Q 203.406 190.654 206.196 193.804 L 206.196 193.804 L 206.196 193.804 Q 208.986 196.954 209.466 201.574 L 209.466 201.574 L 209.466 201.574 Q 212.286 201.394 216.186 200.374 L 216.186 200.374 L 216.186 200.374 Q 216.666 200.254 217.026 200.254 L 217.026 200.254 Z " fill="rgb(0,0,0)"/><path d=" M 197.346 212.614 L 197.346 212.614 Q 199.266 212.614 200.676 211.054 L 200.676 211.054 L 200.676 211.054 Q 202.086 209.494 202.566 206.554 L 202.566 206.554 L 202.566 206.554 Q 200.706 205.294 199.716 203.254 L 199.716 203.254 L 199.716 203.254 Q 198.726 201.214 198.726 198.934 L 198.726 198.934 L 198.726 198.934 Q 198.726 197.974 198.906 197.014 L 198.906 197.014 L 198.606 197.014 L 198.606 197.014 Q 196.206 197.014 194.616 199.324 L 194.616 199.324 L 194.616 199.324 Q 193.026 201.634 193.026 205.834 L 193.026 205.834 L 193.026 205.834 Q 193.026 209.134 194.316 210.874 L 194.316 210.874 L 194.316 210.874 Q 195.606 212.614 197.346 212.614 L 197.346 212.614 Z " fill="rgb(185,185,185)"/><path d=" M 247.566 205.294 L 247.566 205.294 Q 248.346 205.294 248.796 206.014 L 248.796 206.014 L 248.796 206.014 Q 249.246 206.734 249.246 207.994 L 249.246 207.994 L 249.246 207.994 Q 249.246 210.394 248.106 211.714 L 248.106 211.714 L 248.106 211.714 Q 245.646 214.714 242.706 216.844 L 242.706 216.844 L 242.706 216.844 Q 239.766 218.974 236.886 218.974 L 236.886 218.974 L 236.886 218.974 Q 232.326 218.974 229.926 213.634 L 229.926 213.634 L 229.926 213.634 Q 227.406 216.814 225.516 217.894 L 225.516 217.894 L 225.516 217.894 Q 223.626 218.974 221.106 218.974 L 221.106 218.974 L 221.106 218.974 Q 217.446 218.974 215.076 216.244 L 215.076 216.244 L 215.076 216.244 Q 212.706 213.514 212.706 209.134 L 212.706 209.134 L 212.706 209.134 Q 212.706 204.334 214.746 200.224 L 214.746 200.224 L 214.746 200.224 Q 216.786 196.114 220.356 193.504 L 220.356 193.504 L 220.356 193.504 Q 223.926 190.894 228.366 190.414 L 228.366 190.414 L 228.366 190.414 Q 229.506 178.774 232.716 170.524 L 232.716 170.524 L 232.716 170.524 Q 235.926 162.274 241.146 162.274 L 241.146 162.274 L 241.146 162.274 Q 243.726 162.274 245.436 164.614 L 245.436 164.614 L 245.436 164.614 Q 247.146 166.954 247.146 171.694 L 247.146 171.694 L 247.146 171.694 Q 247.146 178.414 243.846 187.414 L 243.846 187.414 L 243.846 187.414 Q 240.546 196.414 235.026 205.894 L 235.026 205.894 L 235.026 205.894 Q 235.266 209.374 236.076 210.874 L 236.076 210.874 L 236.076 210.874 Q 236.886 212.374 238.146 212.374 L 238.146 212.374 L 238.146 212.374 Q 239.766 212.374 241.446 210.934 L 241.446 210.934 L 241.446 210.934 Q 243.126 209.494 245.946 206.134 L 245.946 206.134 L 245.946 206.134 Q 246.666 205.294 247.566 205.294 L 247.566 205.294 Z " fill="rgb(0,0,0)"/><path d=" M 240.486 168.154 L 240.486 168.154 Q 239.346 168.154 238.206 172.204 L 238.206 172.204 L 238.206 172.204 Q 237.066 176.254 236.256 182.794 L 236.256 182.794 L 236.256 182.794 Q 235.446 189.334 235.086 196.474 L 235.086 196.474 L 235.086 196.474 Q 241.806 181.834 241.806 172.954 L 241.806 172.954 L 241.806 172.954 Q 241.806 170.674 241.416 169.414 L 241.416 169.414 L 241.416 169.414 Q 241.026 168.154 240.486 168.154 L 240.486 168.154 Z " fill="rgb(185,185,185)"/><path d=" M 223.206 212.914 L 223.206 212.914 Q 224.346 212.914 225.486 211.984 L 225.486 211.984 L 225.486 211.984 Q 226.626 211.054 228.366 208.534 L 228.366 208.534 L 228.366 208.534 Q 227.766 205.294 227.766 201.274 L 227.766 201.274 L 227.766 201.274 Q 227.766 199.834 227.886 196.594 L 227.886 196.594 L 227.886 196.594 Q 224.586 197.614 222.396 201.004 L 222.396 201.004 L 222.396 201.004 Q 220.206 204.394 220.206 208.534 L 220.206 208.534 L 220.206 208.534 Q 220.206 212.914 223.206 212.914 L 223.206 212.914 Z " fill="rgb(185,185,185)"/></g></g></svg>